<svg width="361" height="180" viewBox="0 0 361 180" fill="none" xmlns="http://www.w3.org/2000/svg">
<path d="M71.95 74.4716V68.6418C74.3879 68.7045 76.4299 69.103 78.076 69.8373C79.7221 70.5627 81.0505 71.5567 82.0611 72.8194C83.0613 74.0642 83.7853 75.5284 84.2333 77.2119C84.6709 78.8955 84.8897 80.7134 84.8897 82.6657V84.6672H76.5132V82.303C76.5132 81.4433 76.4664 80.5702 76.3726 79.6836C76.2997 78.7881 76.1069 77.9687 75.7944 77.2254C75.5027 76.4911 75.0442 75.8731 74.4191 75.3716C73.8149 74.8612 72.9918 74.5612 71.95 74.4716ZM71.8093 112.084V106.469C72.7991 106.406 73.5961 106.151 74.2003 105.703C74.8255 105.246 75.2995 104.696 75.6225 104.051C75.9767 103.406 76.2059 102.707 76.3101 101.955C76.4455 101.194 76.5132 100.46 76.5132 99.7522V95.5746H72.9658V90.1746H85.1866V111.493H79.4513L78.1854 108.309C77.5395 109.267 76.6487 110.078 75.5131 110.74C74.3775 111.385 73.1429 111.833 71.8093 112.084ZM70.4653 106.442V112.245C70.3403 112.263 70.2205 112.272 70.1059 112.272C70.0017 112.272 69.8819 112.272 69.7464 112.272C68.1212 112.272 66.6782 112.075 65.4176 111.681C64.1674 111.287 63.0734 110.754 62.1358 110.082C61.2189 109.384 60.4428 108.587 59.8072 107.691C59.1821 106.796 58.6768 105.842 58.2913 104.83C57.9059 103.809 57.635 102.77 57.4787 101.713C57.312 100.648 57.2287 99.6179 57.2287 98.6239V83.1627C57.2287 81.1925 57.437 79.3478 57.8538 77.6284C58.2913 75.9 59.0258 74.3821 60.0573 73.0746C61.0991 71.7672 62.4691 70.7284 64.1674 69.9582C65.876 69.1702 68.0118 68.7358 70.5747 68.6552V74.4985C69.6266 74.5881 68.8505 74.8522 68.2462 75.291C67.6419 75.7299 67.1627 76.2672 66.8084 76.903C66.4646 77.5119 66.225 78.197 66.0896 78.9582C65.9645 79.6925 65.902 80.4224 65.902 81.1478V99.9269C65.902 100.634 65.9593 101.351 66.0739 102.076C66.199 102.793 66.4282 103.46 66.7616 104.078C67.0845 104.696 67.5429 105.215 68.1368 105.636C68.7411 106.066 69.5172 106.334 70.4653 106.442ZM103.705 68.6418V74.4716C102.768 74.5612 102.007 74.8299 101.424 75.2776C100.84 75.6985 100.372 76.2313 100.017 76.8761C99.6943 77.5209 99.4651 78.2284 99.3297 78.9985C99.2255 79.7597 99.1734 80.5164 99.1734 81.2687V99.6851C99.1734 100.437 99.2255 101.203 99.3297 101.982C99.4651 102.734 99.6943 103.433 100.017 104.078C100.351 104.704 100.809 105.242 101.393 105.69C101.997 106.11 102.768 106.37 103.705 106.469V112.272C101.195 112.209 99.0953 111.793 97.4075 111.022C95.7301 110.252 94.3757 109.227 93.3443 107.946C92.3233 106.657 91.594 105.161 91.1564 103.46C90.7084 101.767 90.4844 99.9493 90.4844 98.006V83.109C90.4844 81.1388 90.698 79.2896 91.1252 77.5612C91.5627 75.8328 92.292 74.3239 93.313 73.0343C94.3445 71.7269 95.7041 70.6836 97.3919 69.9045C99.0901 69.1343 101.195 68.7134 103.705 68.6418ZM105.081 74.4716V68.6418C107.592 68.7134 109.686 69.1343 111.363 69.9045C113.072 70.6836 114.436 71.7269 115.457 73.0343C116.499 74.3239 117.244 75.8328 117.692 77.5612C118.13 79.2806 118.349 81.1299 118.349 83.109V97.8448C118.349 99.7791 118.13 101.606 117.692 103.325C117.244 105.036 116.51 106.545 115.489 107.852C114.468 109.142 113.103 110.19 111.394 110.996C109.706 111.784 107.602 112.209 105.081 112.272V106.469C106.029 106.37 106.795 106.11 107.378 105.69C107.982 105.26 108.451 104.731 108.784 104.104C109.118 103.46 109.337 102.752 109.441 101.982C109.576 101.203 109.644 100.437 109.644 99.6851V81.2687C109.644 80.5164 109.576 79.7508 109.441 78.9716C109.337 78.2015 109.107 77.503 108.753 76.8761C108.43 76.2313 107.967 75.6985 107.362 75.2776C106.768 74.8299 106.008 74.5612 105.081 74.4716ZM150.714 69.4343H151.276V90.9269L144.056 111.493H139.384L132.164 90.9269V69.4343H132.664L141.728 100.894L150.714 69.4343ZM130.788 111.493H124.053V69.4209H130.788V111.493ZM159.387 111.493H152.651V69.4209H159.387V111.493ZM180.297 69.4209L177.078 84.694L171.639 111.493H163.263L173.639 69.4209H180.297ZM178.39 85.191L181.719 69.4209L192.111 111.493H183.501L181.391 102.076H175.015L175.765 97.697H180.766L178.39 85.191ZM206.036 91.8672V87.1522H208.755C209.682 87.1522 210.432 86.9284 211.005 86.4806C211.568 86.0328 212.005 85.4821 212.318 84.8284C212.631 84.1836 212.834 83.5075 212.927 82.8C213.042 82.0925 213.099 81.4791 213.099 80.9597C213.099 80.4224 213.053 79.809 212.959 79.1194C212.865 78.4299 212.672 77.7761 212.381 77.1582C212.099 76.5313 211.698 76.003 211.177 75.5731C210.656 75.1522 209.974 74.9418 209.13 74.9418H206.036V69.4209H207.239C209.552 69.4209 211.604 69.6403 213.396 70.0791C215.209 70.5 216.73 71.1582 217.96 72.0537C219.199 72.9582 220.142 74.1 220.788 75.4791C221.424 76.8672 221.742 78.5194 221.742 80.4358C221.742 81.403 221.695 82.3791 221.601 83.3642C221.518 84.3582 221.273 85.3209 220.866 86.2522C220.481 87.1657 219.877 88.0254 219.054 88.8313C218.23 89.6104 217.079 90.2866 215.6 90.8597L222.539 111.493H213.662L207.989 91.8672H206.036ZM204.66 111.493H195.971V69.4209H204.66V111.493ZM236.775 91.2627V85.6612L244.245 69.4209H253.888L243.886 88.3343L254.95 111.493H245.918L236.775 91.2627ZM235.4 111.493H226.711V69.4209H235.4V111.493ZM266.906 111.493H258.232V69.4209H266.906V111.493ZM268.281 111.493V106.281H277.923V111.493H268.281ZM268.281 74.6328V69.4209H277.923V74.6328H268.281ZM268.281 92.3642V87.0582H274.735V92.3642H268.281ZM286.8 76.2179H295.504V111.493H286.8V76.2179ZM279.111 75.0358V69.4209H303.115V75.0358H279.111Z" fill="#F4EDE8"/>
<path d="M326.869 94.7284V98.7582C325.421 98.6955 324.119 98.4448 322.962 98.006C321.827 97.5672 320.863 96.9761 320.071 96.2328C319.29 95.4985 318.685 94.6164 318.258 93.5866C317.862 92.5657 317.664 91.4507 317.664 90.2418C317.664 89.0149 317.873 87.8955 318.289 86.8836C318.717 85.8627 319.321 84.9806 320.102 84.2373C320.894 83.503 321.858 82.9209 322.993 82.491C324.129 82.0522 325.421 81.8015 326.869 81.7388V85.7955C326.171 85.8582 325.572 86.0239 325.072 86.2925C324.582 86.5612 324.171 86.9015 323.837 87.3134C323.514 87.7075 323.27 88.1552 323.103 88.6567C322.957 89.1582 322.884 89.6866 322.884 90.2418C322.884 90.7881 322.967 91.3164 323.134 91.8269C323.29 92.3284 323.535 92.7851 323.869 93.197C324.202 93.6 324.613 93.9448 325.103 94.2313C325.603 94.5 326.192 94.6657 326.869 94.7284ZM328.244 98.7582V94.7284C328.922 94.6657 329.515 94.5 330.026 94.2313C330.536 93.9448 330.958 93.6045 331.292 93.2104C331.636 92.8075 331.891 92.3508 332.057 91.8403C332.224 91.3388 332.308 90.8149 332.308 90.2687C332.308 89.7134 332.224 89.1851 332.057 88.6836C331.891 88.1821 331.636 87.7343 331.292 87.3403C330.958 86.9284 330.536 86.5881 330.026 86.3194C329.515 86.0507 328.922 85.8761 328.244 85.7955V81.7119C329.703 81.7567 331.01 82.003 332.167 82.4507C333.323 82.8895 334.292 83.4806 335.074 84.2239C335.886 84.9582 336.501 85.8358 336.918 86.8567C337.334 87.8866 337.543 89.0149 337.543 90.2418C337.543 91.4687 337.334 92.5925 336.918 93.6134C336.501 94.6254 335.886 95.5075 335.074 96.2597C334.292 97.003 333.323 97.594 332.167 98.0328C331.01 98.4537 329.703 98.6955 328.244 98.7582Z" fill="#F4EDE8"/>
<path d="M29.9427 94.7284V98.7582C28.4945 98.6955 27.1922 98.4448 26.0358 98.006C24.9001 97.5672 23.9364 96.9761 23.1446 96.2328C22.3632 95.4985 21.759 94.6164 21.3318 93.5866C20.9359 92.5657 20.738 91.4507 20.738 90.2418C20.738 89.0149 20.9463 87.8955 21.3631 86.8836C21.7902 85.8627 22.3945 84.9806 23.1759 84.2373C23.9677 83.503 24.9314 82.9209 26.067 82.491C27.2026 82.0522 28.4945 81.8015 29.9427 81.7388V85.7955C29.2446 85.8582 28.6456 86.0239 28.1455 86.2925C27.6558 86.5612 27.2443 86.9015 26.9109 87.3134C26.5879 87.7075 26.3431 88.1552 26.1764 88.6567C26.0305 89.1582 25.9576 89.6866 25.9576 90.2418C25.9576 90.7881 26.041 91.3164 26.2077 91.8269C26.3639 92.3284 26.6088 92.7851 26.9422 93.197C27.2756 93.6 27.6871 93.9448 28.1767 94.2313C28.6768 94.5 29.2655 94.6657 29.9427 94.7284ZM31.3179 98.7582V94.7284C31.9951 94.6657 32.589 94.5 33.0995 94.2313C33.61 93.9448 34.0319 93.6045 34.3653 93.2104C34.7091 92.8075 34.9644 92.3508 35.1311 91.8403C35.2978 91.3388 35.3811 90.8149 35.3811 90.2687C35.3811 89.7134 35.2978 89.1851 35.1311 88.6836C34.9644 88.1821 34.7091 87.7343 34.3653 87.3403C34.0319 86.9284 33.61 86.5881 33.0995 86.3194C32.589 86.0507 31.9951 85.8761 31.3179 85.7955V81.7119C32.7765 81.7567 34.084 82.003 35.2405 82.4507C36.3969 82.8895 37.3658 83.4806 38.1472 84.2239C38.9599 84.9582 39.5746 85.8358 39.9913 86.8567C40.408 87.8866 40.6164 89.0149 40.6164 90.2418C40.6164 91.4687 40.408 92.5925 39.9913 93.6134C39.5746 94.6254 38.9599 95.5075 38.1472 96.2597C37.3658 97.003 36.3969 97.594 35.2405 98.0328C34.084 98.4537 32.7765 98.6955 31.3179 98.7582Z" fill="#F4EDE8"/>
<path d="M12.5022 54.9134V48.197H334.433V54.9134H12.5022Z" fill="#FF9000"/>
<path d="M14.0649 132.824V126.107H335.996V132.824H14.0649Z" fill="#FF9000"/>
<path d="M144.478 37.6119L144.619 36.6716C143.431 36.4702 143.119 36.3358 143.072 36.0672L139.946 20.6328H137.618L128.069 35.6105C127.647 36.2821 127.6 36.3358 126.084 36.6448V37.6119H131.585L131.726 36.6716L129.929 36.2149C129.819 36.1881 129.788 36.1075 129.788 36.0672C129.788 36.0134 129.897 35.8254 129.991 35.6776L132.21 32.1985H139.493L140.024 35.3418C140.056 35.4627 140.056 35.5836 140.056 35.6776C140.056 36.2149 139.165 36.403 137.727 36.6448V37.6119H144.478ZM139.274 30.909H132.992L137.664 23.4134H137.946C137.946 23.6149 137.946 23.8299 137.977 24.1254L139.274 30.909ZM158.793 37.8269C160.559 36.0672 165.685 30.1702 165.685 27.0269C165.685 26.7045 165.685 26.4224 165.513 26.1537L165.263 25.9119C164.638 25.9119 163.638 25.9791 161.325 26.2478L161.184 27.0269C162.419 27.1478 163.372 27.2149 163.372 28.1284C163.372 30.2105 160.622 33.8373 159.293 35.3821L159.184 35.3687L157.449 26.1537L157.183 25.9119C156.621 25.9119 155.808 25.9791 153.667 26.2478L153.527 27.0269C154.996 27.1881 155.136 27.2149 155.339 28.1149L155.621 29.4179V29.5791C155.621 31.5672 153.448 34.106 152.261 35.3821L152.151 35.3687L150.417 26.1537L150.151 25.9119C149.51 25.9119 148.604 25.9791 146.213 26.2478L146.072 27.0269C147.885 27.1881 148.104 27.2149 148.307 28.1149L150.432 37.8269H151.761C152.808 36.7657 154.792 34.5358 156.152 32.3463L156.261 32.3597L157.465 37.8269H158.793ZM175.14 34.7776C173.483 35.7716 172.467 36.0672 171.483 36.0672C169.873 36.0672 169.201 35.3149 169.201 33.2328C169.201 32.9911 169.201 32.709 169.264 32.4134C172.608 31.9299 176.593 30.6269 176.593 27.9403C176.593 26.3955 175.39 25.8179 173.905 25.8179C169.983 25.8179 166.701 29.2433 166.701 33.7164C166.701 36.6985 168.748 37.8269 170.53 37.8269C172.499 37.8269 174.577 36.5508 175.812 35.409L175.14 34.7776ZM169.404 31.3791C169.701 29.8746 170.576 28.2761 171.248 27.6717C171.702 27.3358 172.264 27.1612 172.827 27.1612C173.843 27.1612 174.124 27.7925 174.124 28.3299C174.124 29.6597 172.295 30.7478 169.404 31.3791ZM186.157 29.2702C186.532 28.1821 186.751 26.9194 186.814 26.3015C186.142 26.0731 184.876 25.8179 183.751 25.8179C180.563 25.8179 178.593 27.2821 178.593 29.297C178.593 31.1373 179.969 31.9299 181.375 32.5343C182.766 33.1388 184.173 33.5955 184.173 34.7373C184.173 35.194 183.891 35.9463 183.579 36.1881C183.329 36.3493 182.532 36.5508 181.36 36.5508C179.687 36.5508 179.25 36.0134 179.25 35.1403C179.25 34.8582 179.265 34.4149 179.359 33.797H177.953C177.562 34.8851 177.281 36.3493 177.249 37.1015C177.781 37.3702 179.187 37.8269 180.703 37.8269C184.219 37.8269 186.392 36.1075 186.392 33.9314C186.392 32.4403 184.923 31.7149 183.469 31.0299C182 30.3582 180.563 29.8478 180.563 28.7597C180.563 28.303 180.813 27.6045 181.125 27.403C181.375 27.2687 182.141 27.0269 183.266 27.0269C184.751 27.0269 184.813 27.309 184.813 28.303C184.813 28.6657 184.782 28.7328 184.751 29.2702H186.157ZM192.893 37.8269C197.816 37.8269 200.316 33.4478 200.316 29.9418C200.316 27.3627 198.769 25.8179 195.846 25.8179C190.892 25.8179 188.439 30.2373 188.439 33.7433C188.439 36.309 189.986 37.8269 192.893 37.8269ZM195.784 35.9194C195.253 36.2821 194.237 36.5508 193.596 36.5508C191.846 36.5508 191.08 35.2881 191.08 33.4478C191.08 30.9896 192.299 28.1821 192.971 27.7254C193.502 27.3627 194.487 27.094 195.143 27.094C196.909 27.094 197.675 28.3567 197.675 30.1836C197.675 32.6552 196.456 35.4627 195.784 35.9194ZM222.304 35.8254C221.46 36.1881 220.898 36.403 220.601 36.403C220.226 36.403 220.147 36.1075 220.147 35.9463C220.147 35.5836 220.601 34.0388 221.07 32.3866C221.632 30.4522 222.289 28.5717 222.289 27.7657C222.289 26.6642 221.632 25.8179 219.913 25.8179C217.022 25.8179 214.6 28.6119 213.678 30.5463L213.506 30.506C213.756 29.8478 214.209 28.4239 214.209 27.7254C214.209 26.6105 213.646 25.8179 211.959 25.8179C209.177 25.8179 206.692 28.5985 205.833 30.5463L205.661 30.506L206.864 26.3015L206.614 26.0597C205.911 26.0597 204.676 26.1269 202.176 26.3955L202.035 27.1612C203.551 27.403 204.192 27.6045 204.192 28.0881C204.192 28.1552 204.16 28.3702 204.145 28.4911L202.926 34.2537C202.535 36.0672 202.394 36.4702 202.004 37.5179L202.457 37.8269C203.035 37.6657 204.051 37.5179 204.754 37.4911C204.754 35.5567 205.317 33.3269 206.364 31.4731C207.598 29.2702 209.458 27.4299 211.052 27.4299C211.709 27.4299 211.927 27.6985 211.927 28.2493C211.927 28.4776 211.927 28.8403 211.818 29.2702L210.521 34.2537C210.052 36.0403 209.958 36.4702 209.568 37.5179L210.021 37.8269C210.583 37.6657 211.615 37.5179 212.318 37.4911C212.318 35.5567 213.396 32.9508 214.209 31.4731C215.412 29.2702 217.303 27.4299 218.913 27.4299C219.585 27.4299 219.804 27.6985 219.804 28.2358C219.804 28.5448 219.772 28.9612 219.413 30.1433C217.944 34.7373 217.756 35.6105 217.756 36.309C217.756 36.9806 218.085 37.8269 219.21 37.8269C219.976 37.8269 221.21 37.4373 222.789 36.4702L222.304 35.8254ZM232.806 34.7776C231.149 35.7716 230.134 36.0672 229.149 36.0672C227.539 36.0672 226.867 35.3149 226.867 33.2328C226.867 32.9911 226.867 32.709 226.93 32.4134C230.274 31.9299 234.259 30.6269 234.259 27.9403C234.259 26.3955 233.056 25.8179 231.571 25.8179C227.649 25.8179 224.367 29.2433 224.367 33.7164C224.367 36.6985 226.414 37.8269 228.196 37.8269C230.165 37.8269 232.243 36.5508 233.478 35.409L232.806 34.7776ZM227.071 31.3791C227.368 29.8746 228.243 28.2761 228.915 27.6717C229.368 27.3358 229.93 27.1612 230.493 27.1612C231.509 27.1612 231.79 27.7925 231.79 28.3299C231.79 29.6597 229.962 30.7478 227.071 31.3791Z" fill="#999591"/>
<path d="M139.04 151.616C138.508 151.804 137.633 151.993 136.649 151.993C133.867 151.993 131.476 150.139 131.476 146.122C131.476 141.596 133.507 137.445 138.336 137.445C139.665 137.445 141.04 137.807 141.274 137.996C141.525 138.197 141.712 139.084 141.853 141.099L143.494 140.897C143.822 139.352 144.025 138.143 144.025 136.84C143.525 136.625 141.134 136.155 139.024 136.155C130.773 136.155 128.272 142.227 128.272 146.539C128.272 150.058 130.46 153.349 135.617 153.349C138.086 153.349 140.587 152.718 141.665 152.234L142.415 147.667C142.478 147.385 142.556 147.143 143.103 147.036L144.588 146.754V145.813H138.04L137.727 146.754C139.321 146.996 139.665 147.21 139.665 147.748C139.665 147.882 139.634 148.057 139.602 148.245L139.04 151.616ZM146.416 153.349C147.01 153.188 148.026 153.04 148.729 153.013C148.729 148.54 152.433 143.704 153.167 143.704C153.808 143.704 154.574 144.013 155.105 144.013C155.636 144.013 156.371 142.791 156.371 141.891C156.371 141.461 155.527 141.34 155.074 141.34C152.605 141.34 150.464 144.739 149.823 146.069L149.62 146.028L150.839 141.824L150.573 141.582C149.87 141.582 148.635 141.649 146.135 141.918L145.994 142.684C147.51 142.925 148.166 143.127 148.166 143.61C148.166 143.678 148.135 143.893 148.104 144.013L146.9 149.776C146.494 151.59 146.353 151.993 145.963 153.04L146.416 153.349ZM161.669 153.349C166.591 153.349 169.092 148.97 169.092 145.464C169.092 142.885 167.545 141.34 164.622 141.34C159.668 141.34 157.215 145.76 157.215 149.266C157.215 151.831 158.762 153.349 161.669 153.349ZM164.56 151.442C164.028 151.804 163.013 152.073 162.372 152.073C160.622 152.073 159.856 150.81 159.856 148.97C159.856 146.512 161.075 143.704 161.747 143.248C162.278 142.885 163.263 142.616 163.919 142.616C165.685 142.616 166.451 143.879 166.451 145.706C166.451 148.178 165.232 150.985 164.56 151.442ZM179.015 150.3C177.359 151.294 176.343 151.59 175.358 151.59C173.843 151.59 173.171 150.837 173.171 148.755C173.171 146.969 174.265 144.067 175.14 143.194C175.421 143.006 176.406 142.684 177.218 142.684C178.656 142.684 178.703 143.046 178.703 143.731C178.703 144.094 178.687 144.161 178.656 144.699H180.141C180.484 143.637 180.703 142.227 180.703 141.596C179.953 141.434 178.906 141.34 177.921 141.34C173.905 141.34 170.576 144.766 170.576 149.239C170.576 152.221 172.639 153.349 174.405 153.349C176.374 153.349 178.453 152.073 179.687 150.931L179.015 150.3ZM190.08 150.3C188.408 151.294 187.407 151.59 186.423 151.59C184.813 151.59 184.141 150.837 184.141 148.755C184.141 148.513 184.141 148.231 184.188 147.936C187.548 147.452 191.533 146.149 191.533 143.463C191.533 141.918 190.33 141.34 188.83 141.34C184.923 141.34 181.641 144.766 181.641 149.239C181.641 152.221 183.688 153.349 185.454 153.349C187.423 153.349 189.517 152.073 190.752 150.931L190.08 150.3ZM184.329 146.901C184.641 145.397 185.516 143.799 186.188 143.194C186.642 142.858 187.204 142.684 187.767 142.684C188.783 142.684 189.064 143.315 189.064 143.852C189.064 145.182 187.236 146.27 184.329 146.901ZM193.393 153.349C193.987 153.188 195.003 153.04 195.706 153.013C195.706 148.54 199.41 143.704 200.144 143.704C200.785 143.704 201.551 144.013 202.082 144.013C202.613 144.013 203.348 142.791 203.348 141.891C203.348 141.461 202.504 141.34 202.051 141.34C199.581 141.34 197.44 144.739 196.8 146.069L196.597 146.028L197.815 141.824L197.55 141.582C196.847 141.582 195.612 141.649 193.112 141.918L192.971 142.684C194.487 142.925 195.143 143.127 195.143 143.61C195.143 143.678 195.112 143.893 195.081 144.013L193.877 149.776C193.471 151.59 193.33 151.993 192.94 153.04L193.393 153.349ZM210.271 136.934C210.271 135.967 209.505 135.604 208.661 135.604C207.661 135.604 207.114 136.236 207.114 136.934C207.114 137.875 207.77 138.291 208.645 138.291C209.63 138.291 210.271 137.66 210.271 136.934ZM209.568 151.348C208.724 151.71 208.224 151.925 207.88 151.925C207.536 151.925 207.427 151.71 207.427 151.348C207.427 151.079 207.567 150.407 207.598 150.233L208.974 143.879C209.146 143.1 209.255 142.281 209.286 141.676L209.036 141.434C208.333 141.434 207.098 141.501 204.582 141.77L204.442 142.549C205.973 142.791 206.614 142.979 206.614 143.463C206.614 143.53 206.583 143.758 206.551 143.879L205.317 149.776C205.207 150.3 205.004 151.321 205.004 151.831C205.004 152.678 205.317 153.349 206.536 153.349C207.536 153.349 208.833 152.919 210.052 151.993L209.568 151.348ZM219.757 150.3C218.085 151.294 217.084 151.59 216.1 151.59C214.49 151.59 213.818 150.837 213.818 148.755C213.818 148.513 213.818 148.231 213.865 147.936C217.225 147.452 221.21 146.149 221.21 143.463C221.21 141.918 220.007 141.34 218.507 141.34C214.6 141.34 211.318 144.766 211.318 149.239C211.318 152.221 213.365 153.349 215.131 153.349C217.1 153.349 219.194 152.073 220.429 150.931L219.757 150.3ZM214.006 146.901C214.318 145.397 215.194 143.799 215.866 143.194C216.319 142.858 216.881 142.684 217.444 142.684C218.46 142.684 218.741 143.315 218.741 143.852C218.741 145.182 216.913 146.27 214.006 146.901ZM230.774 144.793C231.149 143.704 231.368 142.442 231.431 141.824C230.743 141.596 229.477 141.34 228.352 141.34C225.18 141.34 223.211 142.804 223.211 144.819C223.211 146.66 224.586 147.452 225.992 148.057C227.367 148.661 228.774 149.118 228.774 150.26C228.774 150.716 228.493 151.469 228.196 151.71C227.93 151.872 227.149 152.073 225.961 152.073C224.304 152.073 223.851 151.536 223.851 150.663C223.851 150.381 223.883 149.937 223.976 149.319H222.57C222.163 150.407 221.882 151.872 221.867 152.624C222.398 152.893 223.804 153.349 225.32 153.349C228.836 153.349 231.009 151.63 231.009 149.454C231.009 147.963 229.54 147.237 228.071 146.552C226.617 145.881 225.18 145.37 225.18 144.282C225.18 143.825 225.43 143.127 225.742 142.925C225.992 142.791 226.758 142.549 227.883 142.549C229.368 142.549 229.43 142.831 229.43 143.825C229.43 144.188 229.399 144.255 229.368 144.793H230.774Z" fill="#999591"/>
</svg>
